<svg xmlns="http://www.w3.org/2000/svg" viewBox="0 0 32 32" fill="none">
  <circle cx="16" cy="16" r="16" fill="#3B66FF"/>
  <circle cx="11.5" cy="10.5" r="7.5" fill="#FFFFFF" fill-opacity="0.14"/>
  <circle cx="20" cy="21" r="5" fill="#FFFFFF" fill-opacity="0.08"/>
  <g stroke="#FFFFFF" stroke-width="2.15" stroke-linecap="round" stroke-linejoin="round">
    <path d="M10.2 22.2c-3.4-1.8-4.8-5.6-3.5-9.1 1.3-3.5 4.8-5.6 8.5-5.1"/>
    <path d="M21.8 9.8c3.4 1.8 4.8 5.6 3.5 9.1-1.3 3.5-4.8 5.6-8.5 5.1"/>
  </g>
  <circle cx="11.8" cy="14.2" r="1.65" fill="#FFFFFF"/>
  <path d="M9.1 18.1c.9-1.5 2.2-2.3 3.7-2.3s2.8.8 3.7 2.3" stroke="#FFFFFF" stroke-width="1.7" stroke-linecap="round" fill="none"/>
  <circle cx="20.2" cy="14.8" r="1.05" fill="#FFFFFF"/>
  <circle cx="22.8" cy="14.8" r="1.05" fill="#FFFFFF"/>
  <circle cx="25.4" cy="14.8" r="1.05" fill="#FFFFFF"/>
</svg>
