<svg xmlns="http://www.w3.org/2000/svg" viewBox="0 0 180 180" fill="none">
  <rect width="180" height="180" rx="40" fill="#3B66FF"/>
  <circle cx="64" cy="58" r="42" fill="#FFFFFF" fill-opacity="0.14"/>
  <circle cx="112" cy="118" r="28" fill="#FFFFFF" fill-opacity="0.08"/>

  <g stroke="#FFFFFF" stroke-width="12" stroke-linecap="round" stroke-linejoin="round">
    <path d="M57 125c-19-10-27-31-20-51 7-20 27-32 48-29"/>
    <path d="M123 55c19 10 27 31 20 51-7 20-27 32-48 29"/>
  </g>

  <circle cx="66" cy="80" r="9" fill="#FFFFFF"/>
  <path d="M51 101c5-8 12-13 21-13s16 5 21 13" stroke="#FFFFFF" stroke-width="9" stroke-linecap="round" fill="none"/>

  <circle cx="114" cy="83" r="6" fill="#FFFFFF"/>
  <circle cx="128" cy="83" r="6" fill="#FFFFFF"/>
  <circle cx="142" cy="83" r="6" fill="#FFFFFF"/>
</svg>
